<?xml version="1.0" encoding="UTF-8"?>
<svg xmlns="http://www.w3.org/2000/svg" version="1.1" width="210mm" height="297mm" viewBox="0 0 210 297">
<title>Myna Mask – 04 Feathers</title>
<desc>A4 template for decorative feathers. Print at 100%.</desc>
<rect x="0" y="0" width="210" height="297" fill="#ffffff"/>
<text x="10" y="14.5" font-family="Arial, 'Nirmala UI', 'Noto Sans Devanagari', Mangal, sans-serif" font-size="6.2" text-anchor="start" font-weight="bold" fill="#000" >FEATHERS — पंख</text>
<text x="10" y="21" font-family="Arial, 'Nirmala UI', 'Noto Sans Devanagari', Mangal, sans-serif" font-size="3.6" text-anchor="start" font-weight="normal" fill="#333" >Print at 100% / Actual Size   ·   Design 5: Wide &amp; Golden</text>
<text x="200" y="14.5" font-family="Arial, 'Nirmala UI', 'Noto Sans Devanagari', Mangal, sans-serif" font-size="3" text-anchor="end" font-weight="normal" fill="#666" >Page 4 of 6</text>
<text x="200" y="21" font-family="Arial, 'Nirmala UI', 'Noto Sans Devanagari', Mangal, sans-serif" font-size="3" text-anchor="end" font-weight="normal" fill="#666" >Left + right are mirror images</text>
<text x="10" y="30" font-family="Arial, 'Nirmala UI', 'Noto Sans Devanagari', Mangal, sans-serif" font-size="3.6" text-anchor="start" font-weight="bold" fill="#000" >A  LARGE SIDE FEATHERS — brown card (2 big + 2 medium)</text>
<g class="piece" id="f1" transform="translate(28 86) rotate(0)"><path d="M0,0 C12.2,-6.24 16.16,-31.2 9.4,-49.4 Q7.72,-54.6 3.24,-49.4 C-11.12,-31.2 -12,-6.24 0,0 Z" fill="none" stroke="#000" stroke-width="0.7" stroke-linejoin="round" stroke-linecap="round" /><path d="M0.07,-5.2 Q0.56,-23.4 4.48,-41.6" fill="none" stroke="#808080" stroke-width="0.5" stroke-dasharray="3 1.8" /></g>
<text x="28" y="92" font-family="Arial, 'Nirmala UI', 'Noto Sans Devanagari', Mangal, sans-serif" font-size="3" text-anchor="middle" font-weight="bold" fill="#555" >L</text>
<g class="piece" id="f2" transform="translate(64 86) rotate(0)"><path d="M0,0 C10.54,-5.28 13.94,-26.4 8.07,-41.8 Q6.62,-46.2 2.75,-41.8 C-9.62,-26.4 -10.36,-5.28 0,0 Z" fill="none" stroke="#000" stroke-width="0.7" stroke-linejoin="round" stroke-linecap="round" /><path d="M0.06,-4.4 Q0.48,-19.8 3.84,-35.2" fill="none" stroke="#808080" stroke-width="0.5" stroke-dasharray="3 1.8" /></g>
<text x="64" y="92" font-family="Arial, 'Nirmala UI', 'Noto Sans Devanagari', Mangal, sans-serif" font-size="3" text-anchor="middle" font-weight="bold" fill="#555" >L</text>
<g class="piece" id="f3" transform="translate(146 86) rotate(0)"><path d="M0,0 C10.36,-5.28 9.62,-26.4 -2.75,-41.8 Q-6.62,-46.2 -8.07,-41.8 C-13.94,-26.4 -10.54,-5.28 0,0 Z" fill="none" stroke="#000" stroke-width="0.7" stroke-linejoin="round" stroke-linecap="round" /><path d="M-0.06,-4.4 Q-0.48,-19.8 -3.84,-35.2" fill="none" stroke="#808080" stroke-width="0.5" stroke-dasharray="3 1.8" /></g>
<text x="146" y="92" font-family="Arial, 'Nirmala UI', 'Noto Sans Devanagari', Mangal, sans-serif" font-size="3" text-anchor="middle" font-weight="bold" fill="#555" >R</text>
<g class="piece" id="f4" transform="translate(182 86) rotate(0)"><path d="M0,0 C12,-6.24 11.12,-31.2 -3.24,-49.4 Q-7.72,-54.6 -9.4,-49.4 C-16.16,-31.2 -12.2,-6.24 0,0 Z" fill="none" stroke="#000" stroke-width="0.7" stroke-linejoin="round" stroke-linecap="round" /><path d="M-0.07,-5.2 Q-0.56,-23.4 -4.48,-41.6" fill="none" stroke="#808080" stroke-width="0.5" stroke-dasharray="3 1.8" /></g>
<text x="182" y="92" font-family="Arial, 'Nirmala UI', 'Noto Sans Devanagari', Mangal, sans-serif" font-size="3" text-anchor="middle" font-weight="bold" fill="#555" >R</text>
<text x="105" y="62" font-family="Arial, 'Nirmala UI', 'Noto Sans Devanagari', Mangal, sans-serif" font-size="2.8" text-anchor="middle" font-weight="normal" fill="#888" >mirrored pairs</text>
<text x="105" y="66" font-family="Arial, 'Nirmala UI', 'Noto Sans Devanagari', Mangal, sans-serif" font-size="2.8" text-anchor="middle" font-weight="normal" fill="#888" >← LEFT      RIGHT →</text>
<text x="10" y="97" font-family="Arial, 'Nirmala UI', 'Noto Sans Devanagari', Mangal, sans-serif" font-size="3.6" text-anchor="start" font-weight="bold" fill="#000" >B  SMALL HEAD FEATHERS — dark brown / black card (3 + 3)</text>
<g class="piece" id="f5" transform="translate(22 136) rotate(0)"><path d="M0,0 C7.74,-3.84 9.76,-19.2 4.67,-30.4 Q3.31,-33.6 0.75,-30.4 C-7.6,-19.2 -7.66,-3.84 0,0 Z" fill="none" stroke="#000" stroke-width="0.7" stroke-linejoin="round" stroke-linecap="round" /><path d="M0.03,-3.2 Q0.24,-14.4 1.92,-25.6" fill="none" stroke="#808080" stroke-width="0.5" stroke-dasharray="3 1.8" /></g>
<text x="22" y="142" font-family="Arial, 'Nirmala UI', 'Noto Sans Devanagari', Mangal, sans-serif" font-size="3" text-anchor="middle" font-weight="bold" fill="#555" >L</text>
<g class="piece" id="f6" transform="translate(188 136) rotate(0)"><path d="M0,0 C7.66,-3.84 7.6,-19.2 -0.75,-30.4 Q-3.31,-33.6 -4.67,-30.4 C-9.76,-19.2 -7.74,-3.84 0,0 Z" fill="none" stroke="#000" stroke-width="0.7" stroke-linejoin="round" stroke-linecap="round" /><path d="M-0.03,-3.2 Q-0.24,-14.4 -1.92,-25.6" fill="none" stroke="#808080" stroke-width="0.5" stroke-dasharray="3 1.8" /></g>
<text x="188" y="142" font-family="Arial, 'Nirmala UI', 'Noto Sans Devanagari', Mangal, sans-serif" font-size="3" text-anchor="middle" font-weight="bold" fill="#555" >R</text>
<g class="piece" id="f7" transform="translate(46 136) rotate(0)"><path d="M0,0 C7.74,-3.84 9.76,-19.2 4.67,-30.4 Q3.31,-33.6 0.75,-30.4 C-7.6,-19.2 -7.66,-3.84 0,0 Z" fill="none" stroke="#000" stroke-width="0.7" stroke-linejoin="round" stroke-linecap="round" /><path d="M0.03,-3.2 Q0.24,-14.4 1.92,-25.6" fill="none" stroke="#808080" stroke-width="0.5" stroke-dasharray="3 1.8" /></g>
<text x="46" y="142" font-family="Arial, 'Nirmala UI', 'Noto Sans Devanagari', Mangal, sans-serif" font-size="3" text-anchor="middle" font-weight="bold" fill="#555" >L</text>
<g class="piece" id="f8" transform="translate(164 136) rotate(0)"><path d="M0,0 C7.66,-3.84 7.6,-19.2 -0.75,-30.4 Q-3.31,-33.6 -4.67,-30.4 C-9.76,-19.2 -7.74,-3.84 0,0 Z" fill="none" stroke="#000" stroke-width="0.7" stroke-linejoin="round" stroke-linecap="round" /><path d="M-0.03,-3.2 Q-0.24,-14.4 -1.92,-25.6" fill="none" stroke="#808080" stroke-width="0.5" stroke-dasharray="3 1.8" /></g>
<text x="164" y="142" font-family="Arial, 'Nirmala UI', 'Noto Sans Devanagari', Mangal, sans-serif" font-size="3" text-anchor="middle" font-weight="bold" fill="#555" >R</text>
<g class="piece" id="f9" transform="translate(70 136) rotate(0)"><path d="M0,0 C7.74,-3.36 9.76,-16.8 4.67,-26.6 Q3.31,-29.4 0.75,-26.6 C-7.6,-16.8 -7.66,-3.36 0,0 Z" fill="none" stroke="#000" stroke-width="0.7" stroke-linejoin="round" stroke-linecap="round" /><path d="M0.03,-2.8 Q0.24,-12.6 1.92,-22.4" fill="none" stroke="#808080" stroke-width="0.5" stroke-dasharray="3 1.8" /></g>
<text x="70" y="142" font-family="Arial, 'Nirmala UI', 'Noto Sans Devanagari', Mangal, sans-serif" font-size="3" text-anchor="middle" font-weight="bold" fill="#555" >L</text>
<g class="piece" id="f10" transform="translate(140 136) rotate(0)"><path d="M0,0 C7.66,-3.36 7.6,-16.8 -0.75,-26.6 Q-3.31,-29.4 -4.67,-26.6 C-9.76,-16.8 -7.74,-3.36 0,0 Z" fill="none" stroke="#000" stroke-width="0.7" stroke-linejoin="round" stroke-linecap="round" /><path d="M-0.03,-2.8 Q-0.24,-12.6 -1.92,-22.4" fill="none" stroke="#808080" stroke-width="0.5" stroke-dasharray="3 1.8" /></g>
<text x="140" y="142" font-family="Arial, 'Nirmala UI', 'Noto Sans Devanagari', Mangal, sans-serif" font-size="3" text-anchor="middle" font-weight="bold" fill="#555" >R</text>
<text x="10" y="148" font-family="Arial, 'Nirmala UI', 'Noto Sans Devanagari', Mangal, sans-serif" font-size="3.6" text-anchor="start" font-weight="bold" fill="#000" >C  WING-LIKE DECORATIVE PIECES — brown card (1 left + 1 right)</text>
<g class="piece" id="f11" transform="translate(14 160) rotate(0)"><path d="M0,6 C14,-2 40,-5 62,2 C66,10 64,17 60,22 A10.2 9 0 0 1 40 25 A10.2 9 0 0 1 20 25 A10.2 9 0 0 1 2 22 Q-2,14 0,6 Z" fill="none" stroke="#000" stroke-width="0.7" stroke-linejoin="round" stroke-linecap="round" /><path d="M10,6 Q31,2 52,8" fill="none" stroke="#808080" stroke-width="0.5" stroke-dasharray="3 1.8" /></g>
<g class="piece" id="f12" transform="translate(196 160) rotate(0)"><path d="M0,6 C-14,-2 -40,-5 -62,2 C-66,10 -64,17 -60,22 A10.2 9 0 0 0 -40 25 A10.2 9 0 0 0 -20 25 A10.2 9 0 0 0 -2 22 Q2,14 0,6 Z" fill="none" stroke="#000" stroke-width="0.7" stroke-linejoin="round" stroke-linecap="round" /><path d="M-10,6 Q-31,2 -52,8" fill="none" stroke="#808080" stroke-width="0.5" stroke-dasharray="3 1.8" /></g>
<text x="46" y="197" font-family="Arial, 'Nirmala UI', 'Noto Sans Devanagari', Mangal, sans-serif" font-size="3" text-anchor="middle" font-weight="bold" fill="#555" >L</text>
<text x="164" y="197" font-family="Arial, 'Nirmala UI', 'Noto Sans Devanagari', Mangal, sans-serif" font-size="3" text-anchor="middle" font-weight="bold" fill="#555" >R</text>
<text x="105" y="175" font-family="Arial, 'Nirmala UI', 'Noto Sans Devanagari', Mangal, sans-serif" font-size="2.8" text-anchor="middle" font-weight="normal" fill="#888" >tip: glue wings over</text>
<text x="105" y="179" font-family="Arial, 'Nirmala UI', 'Noto Sans Devanagari', Mangal, sans-serif" font-size="2.8" text-anchor="middle" font-weight="normal" fill="#888" >the feathers (layer 3)</text>
<text x="10" y="206" font-family="Arial, 'Nirmala UI', 'Noto Sans Devanagari', Mangal, sans-serif" font-size="3.6" text-anchor="start" font-weight="bold" fill="#000" >D  LAYERED CHIN / CHEEK SCALES — light brown or kraft card (cut 2 of each size)</text>
<g class="piece" id="f13" transform="translate(26 211) rotate(0)"><path d="M-10,0 L10,0 Q12,0 12,2 L12,11 C12,18.7 5.28,22 0,22 C-5.28,22 -12,18.7 -12,11 L-12,2 Q-12,0 -10,0 Z" fill="none" stroke="#000" stroke-width="0.7" stroke-linejoin="round" stroke-linecap="round" /></g>
<g class="piece" id="f14" transform="translate(56 211) rotate(0)"><path d="M-7,0 L7,0 Q9,0 9,2 L9,8.5 C9,14.45 3.96,17 0,17 C-3.96,17 -9,14.45 -9,8.5 L-9,2 Q-9,0 -7,0 Z" fill="none" stroke="#000" stroke-width="0.7" stroke-linejoin="round" stroke-linecap="round" /></g>
<g class="piece" id="f15" transform="translate(82 211) rotate(0)"><path d="M-4.5,0 L4.5,0 Q6.5,0 6.5,2 L6.5,6 C6.5,10.2 2.86,12 0,12 C-2.86,12 -6.5,10.2 -6.5,6 L-6.5,2 Q-6.5,0 -4.5,0 Z" fill="none" stroke="#000" stroke-width="0.7" stroke-linejoin="round" stroke-linecap="round" /></g>
<g class="piece" id="f16" transform="translate(128 211) rotate(0)"><path d="M-10,0 L10,0 Q12,0 12,2 L12,11 C12,18.7 5.28,22 0,22 C-5.28,22 -12,18.7 -12,11 L-12,2 Q-12,0 -10,0 Z" fill="none" stroke="#000" stroke-width="0.7" stroke-linejoin="round" stroke-linecap="round" /></g>
<g class="piece" id="f17" transform="translate(154 211) rotate(0)"><path d="M-7,0 L7,0 Q9,0 9,2 L9,8.5 C9,14.45 3.96,17 0,17 C-3.96,17 -9,14.45 -9,8.5 L-9,2 Q-9,0 -7,0 Z" fill="none" stroke="#000" stroke-width="0.7" stroke-linejoin="round" stroke-linecap="round" /></g>
<g class="piece" id="f18" transform="translate(184 211) rotate(0)"><path d="M-4.5,0 L4.5,0 Q6.5,0 6.5,2 L6.5,6 C6.5,10.2 2.86,12 0,12 C-2.86,12 -6.5,10.2 -6.5,6 L-6.5,2 Q-6.5,0 -4.5,0 Z" fill="none" stroke="#000" stroke-width="0.7" stroke-linejoin="round" stroke-linecap="round" /></g>
<text x="40" y="234" font-family="Arial, 'Nirmala UI', 'Noto Sans Devanagari', Mangal, sans-serif" font-size="2.8" text-anchor="middle" font-weight="normal" fill="#888" >LEFT set</text>
<text x="170" y="234" font-family="Arial, 'Nirmala UI', 'Noto Sans Devanagari', Mangal, sans-serif" font-size="2.8" text-anchor="middle" font-weight="normal" fill="#888" >RIGHT set</text>
<g id="legend">
<rect x="10" y="238" width="132" height="50" rx="2" fill="none" stroke="#bbb" stroke-width="0.3"/>
<text x="14" y="243.2" font-family="Arial, 'Nirmala UI', 'Noto Sans Devanagari', Mangal, sans-serif" font-size="3.2" text-anchor="start" font-weight="bold" fill="#000" >LEGEND</text>
<line x1="14" y1="248.5" x2="34" y2="248.5" fill="none" stroke="#000" stroke-width="0.7" stroke-linejoin="round" stroke-linecap="round"/>
<text x="38" y="249.6" font-family="Arial, 'Nirmala UI', 'Noto Sans Devanagari', Mangal, sans-serif" font-size="3.2" text-anchor="start" font-weight="normal" fill="#000" >CUT  — solid black line</text>
<line x1="14" y1="254.1" x2="34" y2="254.1" fill="none" stroke="#808080" stroke-width="0.5" stroke-dasharray="3 1.8"/>
<text x="38" y="255.2" font-family="Arial, 'Nirmala UI', 'Noto Sans Devanagari', Mangal, sans-serif" font-size="3.2" text-anchor="start" font-weight="normal" fill="#000" >FOLD  — dashed grey line</text>
<line x1="14" y1="259.7" x2="34" y2="259.7" fill="none" stroke="#1d5fe0" stroke-width="0.7" stroke-dasharray="0.1 1.4" stroke-linecap="round"/>
<text x="38" y="260.8" font-family="Arial, 'Nirmala UI', 'Noto Sans Devanagari', Mangal, sans-serif" font-size="3.2" text-anchor="start" font-weight="normal" fill="#000" >GLUE / placement guide — dotted blue line</text>
<line x1="14" y1="265.3" x2="34" y2="265.3" fill="none" stroke="#bdbdbd" stroke-width="0.3"/>
<text x="38" y="266.4" font-family="Arial, 'Nirmala UI', 'Noto Sans Devanagari', Mangal, sans-serif" font-size="3.2" text-anchor="start" font-weight="normal" fill="#000" >PLACEMENT — thin light grey line</text>
<text x="14" y="273.5" font-family="Arial, 'Nirmala UI', 'Noto Sans Devanagari', Mangal, sans-serif" font-size="3" text-anchor="start" font-weight="normal" fill="#333" >Print at 100% (Actual Size). Never use “Fit to page”.</text>
<text x="14" y="278.5" font-family="Arial, 'Nirmala UI', 'Noto Sans Devanagari', Mangal, sans-serif" font-size="3" text-anchor="start" font-weight="normal" fill="#333" >Cut this paper template, trace it on 200–300 GSM kraft/card,</text>
<text x="14" y="283.5" font-family="Arial, 'Nirmala UI', 'Noto Sans Devanagari', Mangal, sans-serif" font-size="3" text-anchor="start" font-weight="normal" fill="#333" >then cut the card piece.</text>
</g>
<g id="scale-check">
<rect x="150" y="238" width="50" height="50" fill="none" stroke="#000" stroke-width="0.5"/>
<line x1="160" y1="238" x2="160" y2="240.5" stroke="#000" stroke-width="0.3"/>
<line x1="150" y1="248" x2="152.5" y2="248" stroke="#000" stroke-width="0.3"/>
<line x1="170" y1="238" x2="170" y2="240.5" stroke="#000" stroke-width="0.3"/>
<line x1="150" y1="258" x2="152.5" y2="258" stroke="#000" stroke-width="0.3"/>
<line x1="180" y1="238" x2="180" y2="240.5" stroke="#000" stroke-width="0.3"/>
<line x1="150" y1="268" x2="152.5" y2="268" stroke="#000" stroke-width="0.3"/>
<line x1="190" y1="238" x2="190" y2="240.5" stroke="#000" stroke-width="0.3"/>
<line x1="150" y1="278" x2="152.5" y2="278" stroke="#000" stroke-width="0.3"/>
<text x="175" y="262" font-family="Arial, 'Nirmala UI', 'Noto Sans Devanagari', Mangal, sans-serif" font-size="3.6" text-anchor="middle" font-weight="bold" fill="#000" >50 mm SCALE CHECK</text>
<text x="175" y="268" font-family="Arial, 'Nirmala UI', 'Noto Sans Devanagari', Mangal, sans-serif" font-size="2.7" text-anchor="middle" font-weight="normal" fill="#444" >Each side must measure</text>
<text x="175" y="272" font-family="Arial, 'Nirmala UI', 'Noto Sans Devanagari', Mangal, sans-serif" font-size="2.7" text-anchor="middle" font-weight="normal" fill="#444" >exactly 50 mm with a ruler.</text>
</g>
</svg>